Coordinates
version=1
nRows=6
nColumns=107
inDegrees=yes

Units are S.I. units (second, meters, Newtons, ...)
If the header above contains a line with 'inDegrees', this indicates whether rotational values are in degrees (yes) or radians (no).

endheader
time	sternoclavicular_r2	sternoclavicular_r3	unrotscap_r3	unrotscap_r2	acromioclavicular_r2	acromioclavicular_r3	acromioclavicular_r1	unrothum_r1	unrothum_r3	unrothum_r2	elv_angle	shoulder_elv	shoulder1_r2	shoulder_rot	elbow_flexion	pro_sup	deviation	flexion	proximal_distal_r1	proximal_distal_r3	cmc_flexion	cmc_abduction	mp_flexion	ip_flexion	mcp2_flexion	mcp2_abduction	pm2_flexion	md2_flexion	mcp3_flexion	mcp3_abduction	pm3_flexion	md3_flexion	mcp4_flexion	mcp4_abduction	pm4_flexion	md4_flexion	mcp5_flexion	mcp5_abduction	pm5_flexion	md5_flexion	bicpt_tx	bicpt_ty	bicpt_tz	bicpt2_tx	bicpt2_ty	bicpt2_tz	ptpt_tx	ptpt_ty	ptpt_tz	FCUpt_tx	FCUpt_ty	FCUpt_tz	EDCpt_tx	EDCpt_ty	EDCpt_tz	APLpt_tx	APLpt_ty	APLpt_tz	FPLpt_tx	FPLpt_ty	FPLpt_tz	FPLpt2_tx	FPLpt2_ty	FPLpt2_tz	PEC1pt2_tx	PEC1pt2_ty	PEC1pt2_tz	PEC1pt3_tx	PEC1pt3_ty	PEC1pt3_tz	PEC2pt2_tx	PEC2pt2_ty	PEC2pt2_tz	PEC2pt3_tx	PEC2pt3_ty	PEC2pt3_tz	PEC3pt2_tx	PEC3pt2_ty	PEC3pt2_tz	PEC3pt3_tx	PEC3pt3_ty	PEC3pt3_tz	DELT2pt2a_tx	DELT2pt2a_ty	DELT2pt2a_tz	DELT2pt2_tx	DELT2pt2_ty	DELT2pt2_tz	LAT1pt2_tx	LAT1pt2_ty	LAT1pt2_tz	LAT1pt3_tx	LAT1pt3_ty	LAT1pt3_tz	LAT2pt2_tx	LAT2pt2_ty	LAT2pt2_tz	LAT2pt3_tx	LAT2pt3_ty	LAT2pt3_tz	LAT3pt2_tx	LAT3pt2_ty	LAT3pt2_tz	LAT3pt3_tx	LAT3pt3_ty	LAT3pt3_tz
      0.00000000	     -0.32063321	      0.13580509	     -0.13580509	      0.32063321	     -0.06492170	      0.52467437	      0.23583752	     -0.23583752	     -0.52467437	      0.06492170	     99.33781327	     75.91276261	     -1.73377191	    -23.28160346	     28.14315530	     24.57468106	      0.03547536	     -0.69032583	      0.04711498	     -0.34516292	     -5.55699938	     -0.15155020	    -16.77114203	    -14.29095592	    -25.27441322	     13.52474499	      8.47615919	    -19.57968904	     29.92335866	     11.44447304	     82.86911485	     28.38901291	     34.15357343	     -0.74457217	     76.30451782	     30.42524155	    -15.15677728	    -13.71248767	    -11.36940183	      5.00835997	      0.00083089	     -0.03082564	     -0.00481957	      0.01627342	     -0.01784523	     -0.00894990	      0.00573421	     -0.06607412	     -0.00202962	      0.00626395	     -0.18378217	     -0.00018732	     -0.00294895	      0.00078948	      0.00019268	      0.00030721	      0.00012288	      0.00061442	      0.00039323	      0.00117970	      0.00066358	     -0.00043686	      0.00015608	      0.00018730	      0.00248825	      0.00872998	      0.00607303	     -0.00813954	      0.01965299	     -0.01864082	      0.00248825	      0.00872998	      0.00607303	      0.00054826	      0.01821908	     -0.00957345	      0.00393831	      0.00485463	      0.01594404	      0.00000000	      0.00770653	      0.00000000	     -0.00712737	     -0.03293773	     -0.00635397	      0.01559790	     -0.00053480	     -0.00452028	     -0.00088565	      0.01484518	     -0.00607303	      0.00244608	      0.02142429	     -0.01771299	     -0.00594650	      0.01286301	     -0.00544042	     -0.01239910	      0.02715992	     -0.03040730	     -0.02327993	      0.01438126	     -0.00729607	     -0.01543561	      0.03137730	     -0.03799859
      0.03333333	     -0.31931327	      0.13524603	     -0.13524603	      0.31931327	     -0.06465444	      0.52251446	      0.23486665	     -0.23486665	     -0.52251446	      0.06465444	     99.67214325	     75.60025524	     -1.73960707	    -25.02882159	     28.25372168	     26.26155139	      0.03565347	     -0.66865946	      0.04734646	     -0.33432973	     -6.08736677	     -0.43080663	    -16.11582031	    -14.53118987	    -25.37420326	     13.57972263	      8.29810746	    -18.98456376	     30.33103760	     11.39074266	     82.55420265	     28.84991966	     33.44053255	     -0.69105024	     76.43032900	     31.23173780	    -15.50387224	    -13.76692930	    -10.94098273	      5.00323708	      0.00083455	     -0.03083831	     -0.00482161	      0.01633286	     -0.01787526	     -0.00880432	      0.00560957	     -0.06615472	     -0.00216551	      0.00642619	     -0.18375406	     -0.00021783	     -0.00315138	      0.00085050	      0.00019391	      0.00030971	      0.00012388	      0.00061941	      0.00039643	      0.00118928	      0.00066897	     -0.00051380	      0.00017276	      0.00020731	      0.00247801	      0.00869404	      0.00604803	     -0.00810603	      0.01957208	     -0.01856408	      0.00247801	      0.00869404	      0.00604803	      0.00054600	      0.01814408	     -0.00953404	      0.00392643	      0.00483464	      0.01591481	      0.00000000	      0.00764277	      0.00000000	     -0.00709803	     -0.03280214	     -0.00630104	      0.01650911	     -0.00059118	     -0.00523585	     -0.00088200	      0.01478406	     -0.00604803	      0.00243601	      0.02133609	     -0.01764007	     -0.00592202	      0.01281005	     -0.00541802	     -0.01234805	      0.02704811	     -0.03028213	     -0.02318410	      0.01432206	     -0.00726603	     -0.01537206	      0.03124813	     -0.03784216
      0.06666667	     -0.31927563	      0.13523009	     -0.13523009	      0.31927563	     -0.06464682	      0.52245287	      0.23483897	     -0.23483897	     -0.52245287	      0.06464682	     99.66932252	     75.59134377	     -1.73955784	    -25.02883300	     28.24664572	     26.26035800	      0.03564809	     -0.66863648	      0.04733933	     -0.33431824	     -6.08765239	     -0.43155637	    -16.11609988	    -14.53116269	    -25.37262221	     13.57999715	      8.29842583	    -18.98433962	     30.33322782	     11.39098920	     82.55445644	     28.84993308	     33.43804253	     -0.69116581	     76.42964932	     31.23158886	    -15.50287741	    -13.76787307	    -10.94082470	      5.00326625	      0.00083431	     -0.03083750	     -0.00482148	      0.01633280	     -0.01787334	     -0.00880442	      0.00560966	     -0.06615466	     -0.00216541	      0.00642608	     -0.18375408	     -0.00021780	     -0.00315124	      0.00085046	      0.00019390	      0.00030970	      0.00012388	      0.00061941	      0.00039642	      0.00118927	      0.00066896	     -0.00051410	      0.00017278	      0.00020734	      0.00247772	      0.00869301	      0.00604731	     -0.00810508	      0.01956978	     -0.01856189	      0.00247772	      0.00869301	      0.00604731	      0.00054594	      0.01814194	     -0.00953292	      0.00392609	      0.00483407	      0.01591398	      0.00000000	      0.00764096	      0.00000000	     -0.00709719	     -0.03279827	     -0.00629953	      0.01650903	     -0.00059118	     -0.00523594	     -0.00088190	      0.01478232	     -0.00604731	      0.00243572	      0.02133358	     -0.01763800	     -0.00592133	      0.01280854	     -0.00541738	     -0.01234660	      0.02704493	     -0.03027856	     -0.02318137	      0.01432037	     -0.00726517	     -0.01537025	      0.03124445	     -0.03783770
      0.10000000	     -0.32107309	      0.13599141	     -0.13599141	      0.32107309	     -0.06501077	      0.52539417	      0.23616106	     -0.23616106	     -0.52539417	      0.06501077	     99.29670673	     76.01690711	     -1.73305447	    -22.95159725	     28.14775519	     24.07355477	      0.04477987	     -0.65316329	      0.05913128	     -0.32658165	     -6.23961380	     -0.76794101	    -16.79667180	    -12.93958543	    -25.69797126	     13.68497944	      8.29820989	    -18.37229640	     30.55672881	     11.41555750	     82.69741540	     28.27884860	     32.16152998	     -0.65424761	     77.26048542	     29.83709177	    -15.85264968	    -13.87057665	    -11.30095734	      5.03148606	      0.00083104	     -0.03082616	     -0.00481965	      0.01625451	     -0.01784648	     -0.00899238	      0.00577124	     -0.06605018	     -0.00198925	      0.00621593	     -0.18379036	     -0.00017785	     -0.00288882	      0.00077152	      0.00019202	      0.00031100	      0.00012440	      0.00062200	      0.00039808	      0.00119425	      0.00067176	     -0.00053760	      0.00017762	      0.00021314	      0.00249167	      0.00874195	      0.00608136	     -0.00815071	      0.01967995	     -0.01866639	      0.00249167	      0.00874195	      0.00608136	      0.00054901	      0.01824407	     -0.00958658	      0.00394226	      0.00486129	      0.01595373	      0.00000000	      0.00772783	      0.00000000	     -0.00713715	     -0.03298292	     -0.00637166	      0.01542122	     -0.00052427	     -0.00439006	     -0.00088686	      0.01486554	     -0.00608136	      0.00244944	      0.02145368	     -0.01773729	     -0.00595466	      0.01288065	     -0.00544788	     -0.01241611	      0.02719718	     -0.03044902	     -0.02331187	      0.01440099	     -0.00730608	     -0.01545678	      0.03142035	     -0.03805072
      0.13333333	     -0.31975026	      0.13543112	     -0.13543112	      0.31975026	     -0.06474292	      0.52322953	      0.23518807	     -0.23518807	     -0.52322953	      0.06474292	     99.56995070	     75.70371612	     -1.73782348	    -24.51819538	     28.32955851	     25.88844716	      0.05080006	     -0.62608825	      0.06683081	     -0.31304413	     -6.36353129	     -1.16376428	    -16.49459730	    -12.98318352	    -25.45657635	     13.72049725	      8.17220621	    -18.99077527	     30.87756340	     11.52228433	     82.34637754	     29.26476926	     31.55127596	     -0.34274843	     77.73143794	     30.56943263	    -15.18410915	    -13.91502932	    -11.53173464	      5.02996590	      0.00083705	     -0.03084700	     -0.00482301	      0.01632026	     -0.01789586	     -0.00883686	      0.00563714	     -0.06613689	     -0.00213545	      0.00639023	     -0.18376035	     -0.00021126	     -0.00310661	      0.00083693	      0.00019376	      0.00031231	      0.00012492	      0.00062461	      0.00039975	      0.00119926	      0.00067458	     -0.00055722	      0.00018159	      0.00021790	      0.00248140	      0.00870593	      0.00605630	     -0.00811713	      0.01959887	     -0.01858948	      0.00248140	      0.00870593	      0.00605630	      0.00054675	      0.01816891	     -0.00954709	      0.00393036	      0.00484126	      0.01592451	      0.00000000	      0.00766385	      0.00000000	     -0.00710774	     -0.03284703	     -0.00631854	      0.01624697	     -0.00057459	     -0.00502229	     -0.00088321	      0.01480429	     -0.00605630	      0.00243934	      0.02136529	     -0.01766422	     -0.00593013	      0.01282758	     -0.00542544	     -0.01236495	      0.02708513	     -0.03032357	     -0.02321583	      0.01434166	     -0.00727597	     -0.01539310	      0.03129090	     -0.03789395
      0.16666667	     -0.32090648	      0.13592084	     -0.13592084	      0.32090648	     -0.06497703	      0.52512154	      0.23603852	     -0.23603852	     -0.52512154	      0.06497703	     99.28591135	     75.97746206	     -1.73286605	    -23.17476509	     28.45343501	     25.95189964	      0.08167489	     -0.56724362	      0.10538426	     -0.28362181	     -5.90250482	     -1.77842286	    -15.34479436	    -15.72766927	    -26.79962080	     13.72001990	      9.91061730	    -20.77920927	     30.34233706	     12.03365730	     81.78852365	     35.51924431	     31.88363284	      0.72740378	     76.08084492	     33.56273695	    -13.77953192	    -13.96279942	    -12.06837274	      5.00794907	      0.00084115	     -0.03086120	     -0.00482529	      0.01632242	     -0.01792952	     -0.00883134	      0.00563245	     -0.06613992	     -0.00214056	      0.00639635	     -0.18375928	     -0.00021239	     -0.00311422	      0.00083924	      0.00019379	      0.00031091	      0.00012437	      0.00062183	      0.00039797	      0.00119391	      0.00067157	     -0.00048565	      0.00016689	      0.00020027	      0.00249037	      0.00873742	      0.00607820	     -0.00814648	      0.01966974	     -0.01865670	      0.00249037	      0.00873742	      0.00607820	      0.00054873	      0.01823461	     -0.00958161	      0.00394076	      0.00485877	      0.01595006	      0.00000000	      0.00771976	      0.00000000	     -0.00713345	     -0.03296580	     -0.00636496	      0.01554086	     -0.00053139	     -0.00447794	     -0.00088640	      0.01485783	     -0.00607820	      0.00244816	      0.02144255	     -0.01772809	     -0.00595157	      0.01287397	     -0.00544506	     -0.01240966	      0.02718307	     -0.03043322	     -0.02329977	      0.01439352	     -0.00730228	     -0.01544876	      0.03140404	     -0.03803097
